<svg xmlns="http://www.w3.org/2000/svg" width="98" height="98" viewBox="0 0 98 98"><g><g><path d="M26.362 27.314h28.803v25.44H26.362zm15.9 24.066c-.67-2.543-2.379-8.155-5.648-11.426-.38-.38-.756-.576-1.123-.576-2.42 0-5.22 7.678-6.456 12.002zm10.756 0c-1.24-3.208-2.785-6.616-4.454-6.616-.113 0-.226.015-.34.041-2.12.546-3.609 5.046-4.052 6.575zm-25.281 0h.047c1.065-3.815 4.063-13.211 7.707-13.211.696 0 1.365.313 1.977.926 2.838 2.842 4.568 7.074 5.515 10.128l.284.895.319-.875c.829-2.266 2.25-5.072 4.34-5.607.211-.056.433-.082.638-.082 2.364 0 3.903 3.218 5.227 6.523v-21.44H27.737zM46.34 38.498a3.36 3.36 0 0 1-3.352-3.357 3.355 3.355 0 0 1 3.352-3.352 3.356 3.356 0 0 1 3.352 3.352 3.36 3.36 0 0 1-3.352 3.357zm0-5.804a2.453 2.453 0 0 0-2.452 2.447 2.457 2.457 0 0 0 2.452 2.45 2.448 2.448 0 1 0 0-4.897zm27.685 9.408l-11.1 31.691L31.181 62.78l.69-1.968c.216.022.432.053.643.077l-5.313-1.4.319-1.19h-3.547V24.67h33.633v8.109l10.75 2.857-1.091 4.109zm-13.16 23.706c-.02-.599-.052-1.201-.093-1.804l-.427 1.623zm.76-4.99c.238 1.23.34 2.63.408 4.037l7.064-20.241-2.867-.998zm-4.597-.53a51.944 51.944 0 0 0-.252-1.988H49.58zm.578-4.17c.251.982.37 2.043.5 3.108l5.523-20.713-6.023-1.6zm-32.259.807h30.935V25.992H25.348zm3.49 1.612l29.917 7.966 7.96-29.92-9.108-2.42v1.37l7.696 2.053-6.534 24.576L44.245 58.3H28.906zM72.318 42.92l-5.397-1.884-.345 1.287 4.259 1.483-8.378 24.01-2.472-.86-.297 1.116-26.492-7.007-.308.891 29.23 10.199zM49 1.763c-26.174 0-47.468 21.294-47.468 47.468 0 26.174 21.294 47.467 47.468 47.467 26.174 0 47.468-21.293 47.468-47.467S75.174 1.763 49 1.763c0 0 26.174 0 0 0zm0-1.3c26.934 0 48.769 21.833 48.769 48.768 0 26.933-21.835 48.767-48.769 48.767C22.066 97.998.231 76.164.231 49.231.231 22.296 22.066.462 49 .462z"/></g></g></svg>