<svg xmlns="http://www.w3.org/2000/svg" width="98" height="98" viewBox="0 0 98 98"><g><g><path d="M77.767 46.364a.771.771 0 0 1-.055 1.088l-7.21 6.466a.766.766 0 0 1-1.06-.03l-1.399-1.417-7.223 7.662 3.996 3.997c.3.299.3.787 0 1.086l-2.692 2.692a.771.771 0 0 1-1.086 0l-.316-.319-2.148 2.152a.772.772 0 0 1-1.087 0l-.315-.318-2.152 2.146a.76.76 0 0 1-1.083 0l-.319-.314-2.147 2.149a.766.766 0 0 1-1.084.003l-1.413-1.399-1.395 1.396a.764.764 0 0 1-1.083 0l-2.691-2.692-2.692-2.688-2.692-2.662v-.004h-.004l-2.69-2.691a.771.771 0 0 1-.004-1.084l1.32-1.337-7.18-7.081-1.308 1.323a.756.756 0 0 1-.544.224.767.767 0 0 1-.514-.194l-7.208-6.47a.77.77 0 0 1-.06-1.084.775.775 0 0 1 1.087-.06l2.407 2.16L37.394 35.65l-9.338-8.832a.773.773 0 0 1-.03-1.087.772.772 0 0 1 1.087-.03l13.837 13.09a.764.764 0 0 1 .018 1.095l-1.33 1.345 3.947 3.9 2.122-2.104a.736.736 0 0 1 .622-.217l5.222.555 2.707-2.834-1.226-1.245a.756.756 0 0 1-.222-.55.772.772 0 0 1 .24-.545l13.837-13.09a.768.768 0 1 1 1.053 1.117L56.674 38.766l13.349 13.521 4.011-3.602-8.105-8.037a.767.767 0 1 1 1.08-1.091l8.168 8.1 1.507-1.353a.766.766 0 0 1 1.083.06zm-38.829.427c0-.737-.243-1.446-.678-2.023l-4.7 4.704a3.362 3.362 0 0 0 2.02.678 3.362 3.362 0 0 0 3.358-3.359zm.413-3.11c.217.262.405.546.562.847l1.41-1.447-.694-.682zm1.976-4.315l-2.816-2.662L24.866 50.09l3.111 2.796zM30.95 52.08l.757.746c.29-.296.585-.604.893-.918.25-.259.502-.522.746-.773a4.803 4.803 0 0 1-.878-.577zm6.4 10.035l1.604 1.605.794-.81-1.612-1.59zm5.109 3.467l-1.612-1.585-.8.81 1.602 1.585zm.28 1.894l1.605 1.604.825-.825-1.62-1.593zm5.14 3.455l-1.615-1.596-.833.832 1.605 1.604zm15.306-6.263L48.993 50.477c-7.3 7.396-11.505 4.213-11.681 4.07a.769.769 0 0 1-.064-1.146l7.246-7.186-2.077-2.055-1.982 2.032c.026.199.04.397.04.6a4.898 4.898 0 0 1-5.48 4.855c-.397.405-.84.861-1.293 1.33-.308.318-.612.63-.9.925l18.122 17.874 1.611-1.608-1.739-1.736-1.762-1.765c-.3-.3-.3-.783 0-1.084.3-.3.787-.3 1.087 0l.941.942 3.42 3.418 1.603-1.609-2.557-2.555-.94-.945a.757.757 0 0 1 0-1.084c.3-.3.783-.3 1.083 0l4.36 4.36 1.605-1.609-3.498-3.496c-.3-.3-.3-.788 0-1.088.3-.3.784-.3 1.083 0l.944.941v.004l3.101 3.097.315.318zm3.682-13.191L57.18 41.79l-4.413 4.615a.768.768 0 0 1-1.086.026.772.772 0 0 1-.023-1.087l.555-.577-3.686-.394-9.39 9.315c1.421.33 4.578.176 9.286-4.835a.761.761 0 0 1 .547-.24.742.742 0 0 1 .555.224l10.207 10.208zm-5.792-14.474c0-1.323 1.076-2.4 2.4-2.4 1.323 0 2.398 1.077 2.398 2.4a2.401 2.401 0 0 1-2.399 2.4 2.401 2.401 0 0 1-2.399-2.4zm3.261 0a.862.862 0 1 0-1.725 0c0 .476.387.866.863.866s.862-.39.862-.866zM49 1.763c-26.174 0-47.468 21.294-47.468 47.468 0 26.174 21.294 47.467 47.468 47.467 26.174 0 47.468-21.293 47.468-47.467S75.174 1.763 49 1.763c0 0 26.174 0 0 0zm0-1.3c26.934 0 48.769 21.833 48.769 48.768 0 26.933-21.835 48.767-48.769 48.767C22.066 97.998.231 76.164.231 49.231.231 22.296 22.066.462 49 .462z"/></g></g></svg>