<svg xmlns="http://www.w3.org/2000/svg" width="98" height="98" viewBox="0 0 98 98"><g><g><path d="M67.245 30.986v17.819h-1.417V33.403L33.173 66.06l15.402.005-.004 1.412H30.755V49.66h1.416v15.402l32.66-32.66h-15.4V30.99zm5.823-6.153V73.63H24.932V24.833zm-46.4 1.474v45.759h44.977V26.307zM49 1.763c-26.174 0-47.468 21.294-47.468 47.468 0 26.174 21.294 47.467 47.468 47.467 26.174 0 47.468-21.293 47.468-47.467S75.174 1.763 49 1.763c0 0 26.174 0 0 0zm0-1.3c26.934 0 48.769 21.833 48.769 48.768 0 26.933-21.835 48.767-48.77 48.767C22.067 97.998.232 76.164.232 49.231.231 22.296 22.066.462 49 .462z"/></g></g></svg>