<svg xmlns="http://www.w3.org/2000/svg" width="98" height="98" viewBox="0 0 98 98"><g><g><path d="M73.038 24.893V73.63H24.962V24.893h6.278v-3.888H33v3.888h7.046v-3.888h1.76v3.888h7.35v-3.888h1.76v3.888h7.075v-3.888h1.764v3.888h6.341v-3.888h1.764v3.888zm-1.6 13.438H26.56v33.698h44.877zm0-11.838H67.86v4.053h-1.764v-4.053h-6.341v4.053H57.99v-4.053h-7.076v4.053h-1.764v-4.053h-7.345v4.053h-1.76v-4.053H33v4.053h-1.764v-4.053H26.56v10.242h44.877zm-22.022 21.58h-.035l-2.002 1.08-.301-1.185 2.515-1.347h1.329v15.611h2.587v1.507h-6.68v-1.507h2.587zM49 1.763c-26.174 0-47.468 21.294-47.468 47.468 0 26.174 21.294 47.467 47.468 47.467 26.174 0 47.468-21.293 47.468-47.467S75.174 1.763 49 1.763c0 0 26.174 0 0 0zm0-1.3c26.934 0 48.769 21.833 48.769 48.768 0 26.933-21.835 48.767-48.769 48.767C22.066 97.998.231 76.164.231 49.231.231 22.296 22.066.462 49 .462z"/></g></g></svg>