<svg xmlns="http://www.w3.org/2000/svg" width="15" height="15" viewBox="0 0 15 15"><defs><clipPath id="nexra"><path fill="#fff" d="M7.537.013c4.162 0 7.535 3.359 7.535 7.501s-3.373 7.5-7.535 7.5c-4.161 0-7.535-3.358-7.535-7.5 0-4.142 3.374-7.5 7.535-7.5z"/></clipPath><clipPath id="nexrb"><path fill="#fff" d="M7.537 3.763a3.76 3.76 0 0 1 3.768 3.751 3.759 3.759 0 0 1-3.768 3.75 3.759 3.759 0 0 1-3.767-3.75 3.76 3.76 0 0 1 3.767-3.75z"/></clipPath></defs><g><g><path d="M7.537.013c4.162 0 7.535 3.359 7.535 7.501s-3.373 7.5-7.535 7.5c-4.161 0-7.535-3.358-7.535-7.5 0-4.142 3.374-7.5 7.535-7.5z"/><path fill="none" stroke="#fff" stroke-miterlimit="20" stroke-width="4" d="M7.537.013c4.162 0 7.535 3.359 7.535 7.501s-3.373 7.5-7.535 7.5c-4.161 0-7.535-3.358-7.535-7.5 0-4.142 3.374-7.5 7.535-7.5z" clip-path="url(&quot;#nexra&quot;)"/></g><g><path fill="#fff" d="M7.537 3.763a3.76 3.76 0 0 1 3.768 3.751 3.759 3.759 0 0 1-3.768 3.75 3.759 3.759 0 0 1-3.767-3.75 3.76 3.76 0 0 1 3.767-3.75z"/><path fill="none" stroke="#fff" stroke-miterlimit="20" stroke-width="4" d="M7.537 3.763a3.76 3.76 0 0 1 3.768 3.751 3.759 3.759 0 0 1-3.768 3.75 3.759 3.759 0 0 1-3.767-3.75 3.76 3.76 0 0 1 3.767-3.75z" clip-path="url(&quot;#nexrb&quot;)"/></g></g></svg>