<svg xmlns="http://www.w3.org/2000/svg" width="25" height="40" viewBox="0 0 25 40"><defs><mask id="kso0b" width="2.32" height="2.18" x="-1.16" y="-1.09"><path fill="#fff" d="M0 0h25v40H0z"/><path d="M21.316 21.677L6.976 36.296c-.912.93-2.39.93-3.303 0a2.414 2.414 0 0 1 0-3.367l12.69-12.936L3.672 7.058a2.414 2.414 0 0 1 0-3.367c.912-.93 2.391-.93 3.303 0l14.34 14.62c.457.464.685 1.073.685 1.682 0 .61-.23 1.22-.685 1.684z"/></mask><filter id="kso0a" width="45" height="60" x="-10" y="-10" filterUnits="userSpaceOnUse"><feOffset in="SourceGraphic" result="FeOffset1079Out"/><feGaussianBlur in="FeOffset1079Out" result="FeGaussianBlur1080Out" stdDeviation="0 0"/></filter></defs><g><g><g filter="url(#kso0a)"><path fill="none" stroke="#000" stroke-opacity=".5" stroke-width="6" d="M21.316 21.677L6.976 36.296c-.912.93-2.39.93-3.303 0a2.414 2.414 0 0 1 0-3.367l12.69-12.936v0L3.672 7.058a2.414 2.414 0 0 1 0-3.367c.912-.93 2.391-.93 3.303 0l14.34 14.62c.457.464.685 1.073.685 1.682 0 .61-.23 1.22-.685 1.684z" mask="url(&quot;#kso0b&quot;)"/><path fill-opacity=".5" d="M21.316 21.677L6.976 36.296c-.912.93-2.39.93-3.303 0a2.414 2.414 0 0 1 0-3.367l12.69-12.936L3.672 7.058a2.414 2.414 0 0 1 0-3.367c.912-.93 2.391-.93 3.303 0l14.34 14.62c.457.464.685 1.073.685 1.682 0 .61-.23 1.22-.685 1.684z"/></g><path fill="#fff" d="M21.316 21.677L6.976 36.296c-.912.93-2.39.93-3.303 0a2.414 2.414 0 0 1 0-3.367l12.69-12.936L3.672 7.058a2.414 2.414 0 0 1 0-3.367c.912-.93 2.391-.93 3.303 0l14.34 14.62c.457.464.685 1.073.685 1.682 0 .61-.23 1.22-.685 1.684z"/></g></g></svg>