<svg xmlns="http://www.w3.org/2000/svg" width="25" height="40" viewBox="0 0 25 40"><defs><mask id="xlp1b" width="2.32" height="2.18" x="-1.16" y="-1.09"><path fill="#fff" d="M0 0h25v40H0z"/><path d="M3.684 21.677l14.34 14.619c.912.93 2.39.93 3.303 0a2.414 2.414 0 0 0 0-3.367L8.637 19.993l12.69-12.935a2.414 2.414 0 0 0 0-3.367 2.303 2.303 0 0 0-3.304 0l-14.34 14.62A2.395 2.395 0 0 0 3 19.993c0 .61.228 1.22.684 1.684z"/></mask><filter id="xlp1a" width="45" height="60" x="-10" y="-10" filterUnits="userSpaceOnUse"><feOffset in="SourceGraphic" result="FeOffset1059Out"/><feGaussianBlur in="FeOffset1059Out" result="FeGaussianBlur1060Out" stdDeviation="0 0"/></filter></defs><g><g><g filter="url(#xlp1a)"><path fill="none" stroke="#000" stroke-opacity=".5" stroke-width="6" d="M3.684 21.677l14.34 14.619c.912.93 2.39.93 3.303 0a2.414 2.414 0 0 0 0-3.367L8.637 19.993v0l12.69-12.935a2.414 2.414 0 0 0 0-3.367 2.303 2.303 0 0 0-3.304 0l-14.34 14.62A2.395 2.395 0 0 0 3 19.993c0 .61.228 1.22.684 1.684z" mask="url(&quot;#xlp1b&quot;)"/><path fill-opacity=".5" d="M3.684 21.677l14.34 14.619c.912.93 2.39.93 3.303 0a2.414 2.414 0 0 0 0-3.367L8.637 19.993l12.69-12.935a2.414 2.414 0 0 0 0-3.367 2.303 2.303 0 0 0-3.304 0l-14.34 14.62A2.395 2.395 0 0 0 3 19.993c0 .61.228 1.22.684 1.684z"/></g><path fill="#fff" d="M3.684 21.677l14.34 14.619c.912.93 2.39.93 3.303 0a2.414 2.414 0 0 0 0-3.367L8.637 19.993l12.69-12.935a2.414 2.414 0 0 0 0-3.367 2.303 2.303 0 0 0-3.304 0l-14.34 14.62A2.395 2.395 0 0 0 3 19.993c0 .61.228 1.22.684 1.684z"/></g></g></svg>